# xmcd CD database file
#
# Track frame offsets:
#	150
#	12345
#	24223
#	35973
#	50518
#	62815
#	76995
#	87908
#	100348
#	113463
#	126503
#	137315
#	149138
#	162315
#	175480
#	187723
#
# Disc length: 2680 seconds
#
# Revision: 2
# Processed by: cddbd v1.4PL0 Copyright (c) Steve Scherf et al.
# Submitted via: CDex 1.50beta8
#
DISCID=d70a7610
DTITLE=Joe Cuba - 16 Exitos
DYEAR=1991
DGENRE=Salsa
TTITLE0=Cita a las seis
TTITLE1=Tremendo coco
TTITLE2=Mujer
TTITLE3=Oye como va
TTITLE4=La lapa
TTITLE5=Siempre sere
TTITLE6=Comprenderas
TTITLE7=Pancho
TTITLE8=Oriente
TTITLE9=Salsa y bembe
TTITLE10=Que va
TTITLE11=El chichon
TTITLE12=Picando de vicio
TTITLE13=Ariñañara
TTITLE14=Que pollo
TTITLE15=Cachondea
EXTD=YEAR: 1991
EXTT0=
EXTT1=
EXTT2=
EXTT3=
EXTT4=
EXTT5=
EXTT6=
EXTT7=
EXTT8=
EXTT9=
EXTT10=
EXTT11=
EXTT12=
EXTT13=
EXTT14=
EXTT15=
PLAYORDER=
